# xmcd
#
# Track frame offsets:
#	150
#	17582
#	39829
#	52432
#	68485
#	82407
#	95658
#	110447
#	132339
#	153697
#	168866
#	193354
#	212400
#	224725
#	242977
#	261464
#	275547
#	291699
#	315030
#	334930
#
# Disc length: 4659 seconds
#
# Revision: 1
# Processed by: cddbd v1.4PL0 Copyright (c) Steve Scherf et al.
# Submitted via: audiograbber 1.82.01
#
DISCID=41123114
DTITLE=ABBA - The Best
DYEAR=2003
DGENRE=
TTITLE0=Dancing Queen
TTITLE1=The Winner Takes It All
TTITLE2=Waterloo
TTITLE3=Mamma Mia
TTITLE4=Ring Ring
TTITLE5=Honey Honey
TTITLE6=I Do, I Do, I Do, I Do, I Do
TTITLE7=Gimme ! Gimme ! Gimme ( A Man After Midnight )
TTITLE8=I Have A Dream
TTITLE9=S. O. S.
TTITLE10=Chiq Uitita
TTITLE11=Super Trouper
TTITLE12=People Need Love
TTITLE13=Knowing Me, Knowing You
TTITLE14=Take A Chance On Me
TTITLE15=Money, Money, Money
TTITLE16=Summer Night City
TTITLE17=Voulez-Vous
TTITLE18=Happy New Year
TTITLE19=Does Your Mother Know
EXTD=2003 The Maestro Records
EXTT0=
EXTT1=
EXTT2=
EXTT3=
EXTT4=
EXTT5=
EXTT6=
EXTT7=
EXTT8=
EXTT9=
EXTT10=
EXTT11=
EXTT12=
EXTT13=
EXTT14=
EXTT15=
EXTT16=
EXTT17=
EXTT18=
EXTT19=
PLAYORDER=
